<svg width="20" height="20" viewBox="0 0 20 20" fill="none" xmlns="http://www.w3.org/2000/svg">
                    <g clip-path="url(#clip0_551_6228)">
                    <mask id="mask0_551_6228" style="mask-type:luminance" maskUnits="userSpaceOnUse" x="-1" y="-1" width="21" height="21">
                        <path d="M19.244 -0.163147H-0.234375V19.3149H19.244V-0.163147Z" fill="white"/>
                    </mask>
                    <g mask="url(#mask0_551_6228)">
                    <mask id="path-2-outside-1_551_6228" maskUnits="userSpaceOnUse" x="-0.09375" y="-0.0181885" width="19" height="19" fill="black">
                    <rect fill="white" x="-0.09375" y="-0.0181885" width="19" height="19"/>
                    <path d="M1.41753 6.69919H17.5818V4.10836C17.581 3.87881 17.493 3.65888 17.3368 3.49657C17.1806 3.33425 16.969 3.24272 16.7481 3.24196H15.5639V4.25883C15.5639 4.51013 15.4678 4.75115 15.2968 4.92885C15.1259 5.10655 14.894 5.20638 14.6522 5.20638C14.4104 5.20638 14.1785 5.10655 14.0075 4.92885C13.8365 4.75115 13.7405 4.51013 13.7405 4.25883V3.24052H5.2588V4.25738C5.25462 4.50594 5.15669 4.74285 4.98609 4.91709C4.81549 5.09133 4.58588 5.18897 4.34669 5.18897C4.10751 5.18897 3.87789 5.09133 3.70729 4.91709C3.53669 4.74285 3.43876 4.50594 3.43459 4.25738V3.24052H2.25225C2.03139 3.24128 1.81978 3.3328 1.66361 3.49512C1.50744 3.65744 1.41937 3.87737 1.41864 4.10692L1.41753 6.69919ZM13.2064 13.0306H15.6867C15.8053 13.0309 15.9189 13.0801 16.0026 13.1674L16.004 13.1689C16.0879 13.256 16.1352 13.374 16.1357 13.4973V15.7499C16.1354 15.8734 16.088 15.9918 16.004 16.0791H16.0026C15.9189 16.1664 15.8053 16.2155 15.6867 16.2157H13.2064C13.0879 16.2155 12.9742 16.1664 12.8905 16.0791H12.8888C12.8049 15.9917 12.7576 15.8734 12.7574 15.7499V13.4973C12.7579 13.3744 12.8052 13.2568 12.8888 13.17L12.8905 13.1686C12.9743 13.0814 13.0879 13.0322 13.2064 13.0317M15.6239 13.5631H13.2687V15.6875H15.6244L15.6239 13.5631ZM13.2064 8.80194H15.6867C15.8058 8.80202 15.9199 8.85121 16.0041 8.93872C16.0883 9.02623 16.1357 9.14489 16.1357 9.26864V11.5213C16.1354 11.6447 16.088 11.763 16.004 11.8502H16.0026C15.9611 11.8933 15.9119 11.9275 15.8577 11.9508C15.8034 11.9741 15.7453 11.986 15.6867 11.986H13.2064C13.1475 11.986 13.0891 11.974 13.0346 11.9505C12.9801 11.9271 12.9306 11.8928 12.8889 11.8495C12.8472 11.8061 12.8141 11.7547 12.7916 11.6981C12.769 11.6415 12.7574 11.5808 12.7574 11.5196V9.26691C12.7577 9.14345 12.805 9.02513 12.8888 8.93768L12.8905 8.93595C12.9746 8.84941 13.0881 8.80067 13.2064 8.80021M15.6239 9.33074H13.2687V11.4557H15.6244L15.6239 9.33074ZM3.3126 13.0306H5.79203C5.91087 13.0309 6.02475 13.0801 6.1088 13.1674V13.1689C6.19298 13.2559 6.24063 13.3739 6.24135 13.4973V15.7499C6.24119 15.8111 6.22944 15.8717 6.20674 15.9282C6.18405 15.9847 6.15086 16.036 6.10908 16.0791C6.02502 16.1664 5.91112 16.2155 5.79231 16.2157H3.3126C3.19379 16.2155 3.07989 16.1664 2.99583 16.0791C2.91199 15.9917 2.86475 15.8734 2.8644 15.7499V13.4973C2.86483 13.3746 2.91175 13.257 2.995 13.17L2.99666 13.1686C3.08045 13.0814 3.19403 13.0322 3.3126 13.0317M5.73007 13.5631H3.37401V15.6875H5.73062L5.73007 13.5631ZM8.25868 13.0317H10.7384C10.8571 13.0322 10.9708 13.0814 11.0549 13.1686L11.0565 13.17C11.1398 13.2575 11.1866 13.3754 11.1871 13.4984V15.7511C11.1869 15.8745 11.1397 15.9929 11.0557 16.0803C10.9717 16.1674 10.8579 16.2165 10.7392 16.2169H8.25979C8.14069 16.2167 8.02651 16.1675 7.94224 16.0801C7.85797 15.9926 7.81049 15.874 7.8102 15.7502V13.4975C7.81064 13.3738 7.85816 13.2553 7.9424 13.1678C8.02663 13.0804 8.14074 13.0311 8.25979 13.0308M10.6773 13.5622H8.3212V15.6867H10.6781L10.6773 13.5622ZM8.32537 8.80079H10.8048C10.9239 8.80086 11.038 8.85006 11.1222 8.93757C11.2064 9.02507 11.2538 9.14373 11.2538 9.26749V11.5201C11.2535 11.6436 11.2061 11.7618 11.1221 11.8491C11.038 11.9363 10.9242 11.9854 10.8054 11.9857H8.32537C8.26634 11.9858 8.20787 11.9739 8.15329 11.9505C8.09872 11.9271 8.04912 11.8928 8.00733 11.8495C7.96554 11.8062 7.93238 11.7547 7.90976 11.698C7.88714 11.6414 7.8755 11.5806 7.8755 11.5193V9.26662C7.87585 9.14316 7.92309 9.02485 8.00693 8.93739L8.0086 8.93566C8.09296 8.84897 8.20673 8.80022 8.32537 8.79992M10.7428 9.33045H8.38678V11.4554H10.7428V9.33045ZM3.4432 8.80079H5.92291C6.04198 8.80086 6.15615 8.85006 6.24034 8.93757C6.32454 9.02507 6.37187 9.14373 6.37194 9.26749V11.5201C6.37196 11.6435 6.32501 11.7619 6.24135 11.8494C6.19955 11.8928 6.1499 11.9273 6.09525 11.9507C6.0406 11.9742 5.98203 11.9861 5.92291 11.986H3.4432C3.32415 11.9858 3.21 11.9367 3.12574 11.8492C3.04149 11.7618 2.99397 11.6433 2.99361 11.5196V9.26691C2.99374 9.20569 3.00549 9.1451 3.02819 9.0886C3.05089 9.03211 3.08408 8.98082 3.12587 8.93768L3.12754 8.93595C3.21139 8.84917 3.32486 8.80037 3.4432 8.80021M5.86066 9.33074H3.50489V11.4557H5.8615L5.86066 9.33074ZM15.0534 2.9754V1.92994C15.0534 1.81942 15.0112 1.71342 14.936 1.63526C14.8608 1.55711 14.7588 1.5132 14.6525 1.5132C14.5461 1.5132 14.4441 1.55711 14.3689 1.63526C14.2937 1.71342 14.2515 1.81942 14.2515 1.92994V4.25738C14.2515 4.36791 14.2937 4.47391 14.3689 4.55206C14.4441 4.63022 14.5461 4.67412 14.6525 4.67412C14.7588 4.67412 14.8608 4.63022 14.936 4.55206C15.0112 4.47391 15.0534 4.36791 15.0534 4.25738V2.9754ZM13.7405 2.70913V1.92936C13.7405 1.67806 13.8365 1.43704 14.0075 1.25934C14.1785 1.08164 14.4104 0.981812 14.6522 0.981812C14.894 0.981812 15.1259 1.08164 15.2968 1.25934C15.4678 1.43704 15.5639 1.67806 15.5639 1.92936V2.70913H16.747C17.1038 2.71019 17.4456 2.85796 17.6978 3.12015C17.95 3.38233 18.0921 3.73762 18.093 4.10836V16.7711C18.0929 16.9546 18.0579 17.1363 17.9901 17.3058C17.9222 17.4752 17.8228 17.6291 17.6976 17.7585C17.5731 17.8885 17.4251 17.9916 17.2621 18.062C17.0991 18.1324 16.9244 18.1688 16.7479 18.1689H2.25225C2.07574 18.1688 1.90098 18.1325 1.738 18.0621C1.57502 17.9917 1.42702 17.8885 1.30249 17.7585C1.17714 17.6291 1.0776 17.4753 1.00961 17.3059C0.941607 17.1364 0.906483 16.9547 0.90625 16.7711V4.10836C0.906212 3.92463 0.941127 3.7427 1.00899 3.57305C1.07685 3.40339 1.17631 3.24936 1.30166 3.1198C1.42608 2.9896 1.57405 2.88627 1.73705 2.81574C1.90005 2.74521 2.07486 2.70888 2.25142 2.70884H3.43486V1.92908C3.43904 1.68052 3.53697 1.44361 3.70757 1.26937C3.87817 1.09513 4.10778 0.997492 4.34697 0.997492C4.58616 0.997492 4.81577 1.09513 4.98637 1.26937C5.15697 1.44361 5.2549 1.68052 5.25908 1.92908V2.70884L13.7405 2.70913ZM4.7478 2.9754V1.92994C4.7478 1.81942 4.70555 1.71342 4.63036 1.63526C4.55516 1.55711 4.45317 1.5132 4.34683 1.5132C4.24049 1.5132 4.1385 1.55711 4.06331 1.63526C3.98811 1.71342 3.94587 1.81942 3.94587 1.92994V4.25738C3.94587 4.36791 3.98811 4.47391 4.06331 4.55206C4.1385 4.63022 4.24049 4.67412 4.34683 4.67412C4.45317 4.67412 4.55516 4.63022 4.63036 4.55206C4.70555 4.47391 4.7478 4.36791 4.7478 4.25738V2.9754ZM17.5818 7.22971H1.41753V16.7711C1.41826 17.0006 1.50632 17.2206 1.6625 17.3829C1.81867 17.5452 2.03028 17.6367 2.25114 17.6375H16.747C16.9679 17.6367 17.1795 17.5452 17.3357 17.3829C17.4919 17.2206 17.5799 17.0006 17.5806 16.7711L17.5818 7.22971Z"/>
                    </mask>
                    <path d="M1.41753 6.69919H17.5818V4.10836C17.581 3.87881 17.493 3.65888 17.3368 3.49657C17.1806 3.33425 16.969 3.24272 16.7481 3.24196H15.5639V4.25883C15.5639 4.51013 15.4678 4.75115 15.2968 4.92885C15.1259 5.10655 14.894 5.20638 14.6522 5.20638C14.4104 5.20638 14.1785 5.10655 14.0075 4.92885C13.8365 4.75115 13.7405 4.51013 13.7405 4.25883V3.24052H5.2588V4.25738C5.25462 4.50594 5.15669 4.74285 4.98609 4.91709C4.81549 5.09133 4.58588 5.18897 4.34669 5.18897C4.10751 5.18897 3.87789 5.09133 3.70729 4.91709C3.53669 4.74285 3.43876 4.50594 3.43459 4.25738V3.24052H2.25225C2.03139 3.24128 1.81978 3.3328 1.66361 3.49512C1.50744 3.65744 1.41937 3.87737 1.41864 4.10692L1.41753 6.69919ZM13.2064 13.0306H15.6867C15.8053 13.0309 15.9189 13.0801 16.0026 13.1674L16.004 13.1689C16.0879 13.256 16.1352 13.374 16.1357 13.4973V15.7499C16.1354 15.8734 16.088 15.9918 16.004 16.0791H16.0026C15.9189 16.1664 15.8053 16.2155 15.6867 16.2157H13.2064C13.0879 16.2155 12.9742 16.1664 12.8905 16.0791H12.8888C12.8049 15.9917 12.7576 15.8734 12.7574 15.7499V13.4973C12.7579 13.3744 12.8052 13.2568 12.8888 13.17L12.8905 13.1686C12.9743 13.0814 13.0879 13.0322 13.2064 13.0317M15.6239 13.5631H13.2687V15.6875H15.6244L15.6239 13.5631ZM13.2064 8.80194H15.6867C15.8058 8.80202 15.9199 8.85121 16.0041 8.93872C16.0883 9.02623 16.1357 9.14489 16.1357 9.26864V11.5213C16.1354 11.6447 16.088 11.763 16.004 11.8502H16.0026C15.9611 11.8933 15.9119 11.9275 15.8577 11.9508C15.8034 11.9741 15.7453 11.986 15.6867 11.986H13.2064C13.1475 11.986 13.0891 11.974 13.0346 11.9505C12.9801 11.9271 12.9306 11.8928 12.8889 11.8495C12.8472 11.8061 12.8141 11.7547 12.7916 11.6981C12.769 11.6415 12.7574 11.5808 12.7574 11.5196V9.26691C12.7577 9.14345 12.805 9.02513 12.8888 8.93768L12.8905 8.93595C12.9746 8.84941 13.0881 8.80067 13.2064 8.80021M15.6239 9.33074H13.2687V11.4557H15.6244L15.6239 9.33074ZM3.3126 13.0306H5.79203C5.91087 13.0309 6.02475 13.0801 6.1088 13.1674V13.1689C6.19298 13.2559 6.24063 13.3739 6.24135 13.4973V15.7499C6.24119 15.8111 6.22944 15.8717 6.20674 15.9282C6.18405 15.9847 6.15086 16.036 6.10908 16.0791C6.02502 16.1664 5.91112 16.2155 5.79231 16.2157H3.3126C3.19379 16.2155 3.07989 16.1664 2.99583 16.0791C2.91199 15.9917 2.86475 15.8734 2.8644 15.7499V13.4973C2.86483 13.3746 2.91175 13.257 2.995 13.17L2.99666 13.1686C3.08045 13.0814 3.19403 13.0322 3.3126 13.0317M5.73007 13.5631H3.37401V15.6875H5.73062L5.73007 13.5631ZM8.25868 13.0317H10.7384C10.8571 13.0322 10.9708 13.0814 11.0549 13.1686L11.0565 13.17C11.1398 13.2575 11.1866 13.3754 11.1871 13.4984V15.7511C11.1869 15.8745 11.1397 15.9929 11.0557 16.0803C10.9717 16.1674 10.8579 16.2165 10.7392 16.2169H8.25979C8.14069 16.2167 8.02651 16.1675 7.94224 16.0801C7.85797 15.9926 7.81049 15.874 7.8102 15.7502V13.4975C7.81064 13.3738 7.85816 13.2553 7.9424 13.1678C8.02663 13.0804 8.14074 13.0311 8.25979 13.0308M10.6773 13.5622H8.3212V15.6867H10.6781L10.6773 13.5622ZM8.32537 8.80079H10.8048C10.9239 8.80086 11.038 8.85006 11.1222 8.93757C11.2064 9.02507 11.2538 9.14373 11.2538 9.26749V11.5201C11.2535 11.6436 11.2061 11.7618 11.1221 11.8491C11.038 11.9363 10.9242 11.9854 10.8054 11.9857H8.32537C8.26634 11.9858 8.20787 11.9739 8.15329 11.9505C8.09872 11.9271 8.04912 11.8928 8.00733 11.8495C7.96554 11.8062 7.93238 11.7547 7.90976 11.698C7.88714 11.6414 7.8755 11.5806 7.8755 11.5193V9.26662C7.87585 9.14316 7.92309 9.02485 8.00693 8.93739L8.0086 8.93566C8.09296 8.84897 8.20673 8.80022 8.32537 8.79992M10.7428 9.33045H8.38678V11.4554H10.7428V9.33045ZM3.4432 8.80079H5.92291C6.04198 8.80086 6.15615 8.85006 6.24034 8.93757C6.32454 9.02507 6.37187 9.14373 6.37194 9.26749V11.5201C6.37196 11.6435 6.32501 11.7619 6.24135 11.8494C6.19955 11.8928 6.1499 11.9273 6.09525 11.9507C6.0406 11.9742 5.98203 11.9861 5.92291 11.986H3.4432C3.32415 11.9858 3.21 11.9367 3.12574 11.8492C3.04149 11.7618 2.99397 11.6433 2.99361 11.5196V9.26691C2.99374 9.20569 3.00549 9.1451 3.02819 9.0886C3.05089 9.03211 3.08408 8.98082 3.12587 8.93768L3.12754 8.93595C3.21139 8.84917 3.32486 8.80037 3.4432 8.80021M5.86066 9.33074H3.50489V11.4557H5.8615L5.86066 9.33074ZM15.0534 2.9754V1.92994C15.0534 1.81942 15.0112 1.71342 14.936 1.63526C14.8608 1.55711 14.7588 1.5132 14.6525 1.5132C14.5461 1.5132 14.4441 1.55711 14.3689 1.63526C14.2937 1.71342 14.2515 1.81942 14.2515 1.92994V4.25738C14.2515 4.36791 14.2937 4.47391 14.3689 4.55206C14.4441 4.63022 14.5461 4.67412 14.6525 4.67412C14.7588 4.67412 14.8608 4.63022 14.936 4.55206C15.0112 4.47391 15.0534 4.36791 15.0534 4.25738V2.9754ZM13.7405 2.70913V1.92936C13.7405 1.67806 13.8365 1.43704 14.0075 1.25934C14.1785 1.08164 14.4104 0.981812 14.6522 0.981812C14.894 0.981812 15.1259 1.08164 15.2968 1.25934C15.4678 1.43704 15.5639 1.67806 15.5639 1.92936V2.70913H16.747C17.1038 2.71019 17.4456 2.85796 17.6978 3.12015C17.95 3.38233 18.0921 3.73762 18.093 4.10836V16.7711C18.0929 16.9546 18.0579 17.1363 17.9901 17.3058C17.9222 17.4752 17.8228 17.6291 17.6976 17.7585C17.5731 17.8885 17.4251 17.9916 17.2621 18.062C17.0991 18.1324 16.9244 18.1688 16.7479 18.1689H2.25225C2.07574 18.1688 1.90098 18.1325 1.738 18.0621C1.57502 17.9917 1.42702 17.8885 1.30249 17.7585C1.17714 17.6291 1.0776 17.4753 1.00961 17.3059C0.941607 17.1364 0.906483 16.9547 0.90625 16.7711V4.10836C0.906212 3.92463 0.941127 3.7427 1.00899 3.57305C1.07685 3.40339 1.17631 3.24936 1.30166 3.1198C1.42608 2.9896 1.57405 2.88627 1.73705 2.81574C1.90005 2.74521 2.07486 2.70888 2.25142 2.70884H3.43486V1.92908C3.43904 1.68052 3.53697 1.44361 3.70757 1.26937C3.87817 1.09513 4.10778 0.997492 4.34697 0.997492C4.58616 0.997492 4.81577 1.09513 4.98637 1.26937C5.15697 1.44361 5.2549 1.68052 5.25908 1.92908V2.70884L13.7405 2.70913ZM4.7478 2.9754V1.92994C4.7478 1.81942 4.70555 1.71342 4.63036 1.63526C4.55516 1.55711 4.45317 1.5132 4.34683 1.5132C4.24049 1.5132 4.1385 1.55711 4.06331 1.63526C3.98811 1.71342 3.94587 1.81942 3.94587 1.92994V4.25738C3.94587 4.36791 3.98811 4.47391 4.06331 4.55206C4.1385 4.63022 4.24049 4.67412 4.34683 4.67412C4.45317 4.67412 4.55516 4.63022 4.63036 4.55206C4.70555 4.47391 4.7478 4.36791 4.7478 4.25738V2.9754ZM17.5818 7.22971H1.41753V16.7711C1.41826 17.0006 1.50632 17.2206 1.6625 17.3829C1.81867 17.5452 2.03028 17.6367 2.25114 17.6375H16.747C16.9679 17.6367 17.1795 17.5452 17.3357 17.3829C17.4919 17.2206 17.5799 17.0006 17.5806 16.7711L17.5818 7.22971Z" fill="#CF9C5A"/>
                    <path d="M1.41753 6.69919L1.18837 6.69909L1.18827 6.92835H1.41753V6.69919ZM17.5818 6.69919V6.92835H17.8109V6.69919H17.5818ZM17.5818 4.10836H17.8109L17.8109 4.10763L17.5818 4.10836ZM16.7481 3.24196L16.7489 3.0128H16.7481V3.24196ZM15.5639 3.24196V3.0128H15.3347V3.24196H15.5639ZM14.6522 5.20638V5.43554V5.20638ZM13.7405 4.25883H13.5113H13.7405ZM13.7405 3.24052H13.9696V3.01136H13.7405V3.24052ZM5.2588 3.24052V3.01136H5.02964V3.24052H5.2588ZM5.2588 4.25738L5.48796 4.26123V4.25738H5.2588ZM3.43459 4.25738H3.2054L3.20546 4.26123L3.43459 4.25738ZM3.43459 3.24052H3.66374V3.01136H3.43459V3.24052ZM2.25225 3.24052V3.01136L2.25146 3.01136L2.25225 3.24052ZM1.41864 4.10692L1.18948 4.10619L1.18948 4.10682L1.41864 4.10692ZM15.6867 13.0306L15.6874 12.8014H15.6867V13.0306ZM16.0026 13.1674L15.8372 13.3261L15.8375 13.3263L16.0026 13.1674ZM16.004 13.1689L15.8389 13.3278L15.8389 13.3278L16.004 13.1689ZM16.1357 13.4973H16.3649L16.3649 13.4963L16.1357 13.4973ZM16.1357 15.7499L16.3649 15.7505V15.7499H16.1357ZM16.004 16.0791V16.3083H16.1016L16.1692 16.238L16.004 16.0791ZM16.0026 16.0791V15.85H15.9049L15.8373 15.9205L16.0026 16.0791ZM15.6867 16.2157V16.4449L15.6871 16.4449L15.6867 16.2157ZM13.2064 16.2157L13.206 16.4449H13.2064V16.2157ZM12.8905 16.0791L13.0558 15.9205L12.9882 15.85H12.8905V16.0791ZM12.8888 16.0791L12.7236 16.2379L12.7912 16.3083H12.8888V16.0791ZM12.7574 15.7499H12.5282L12.5282 15.7503L12.7574 15.7499ZM12.7574 13.4973L12.5282 13.4963V13.4973H12.7574ZM12.8888 13.17L12.7388 12.9968L12.731 13.0036L12.7238 13.011L12.8888 13.17ZM12.8905 13.1686L13.0405 13.3418L13.0484 13.335L13.0557 13.3274L12.8905 13.1686ZM15.6239 13.5631L15.853 13.563L15.853 13.3339H15.6239V13.5631ZM13.2687 13.5631V13.3339H13.0395V13.5631H13.2687ZM13.2687 15.6875H13.0395V15.9167H13.2687V15.6875ZM15.6244 15.6875V15.9167H15.8537L15.8536 15.6875L15.6244 15.6875ZM15.6867 8.80194L15.6868 8.57279H15.6867V8.80194ZM16.0041 8.93872L16.1693 8.77984L16.0041 8.93872ZM16.1357 9.26864H16.3649V9.26851L16.1357 9.26864ZM16.1357 11.5213L16.3649 11.5219V11.5213H16.1357ZM16.004 11.8502V12.0794H16.1015L16.1691 12.0092L16.004 11.8502ZM16.0026 11.8502V11.6211H15.9052L15.8375 11.6913L16.0026 11.8502ZM15.6867 11.986L15.6869 11.7568H15.6867V11.986ZM13.2064 11.986V11.7568L13.2063 11.7568L13.2064 11.986ZM12.7574 11.5196H12.9865H12.7574ZM12.7574 9.26691L12.5282 9.26625V9.26691H12.7574ZM12.8888 8.93768L12.7237 8.7788L12.7234 8.77909L12.8888 8.93768ZM12.8905 8.93595L12.7262 8.77621L12.7254 8.77706L12.8905 8.93595ZM15.6239 9.33074L15.853 9.33068L15.853 9.10158H15.6239V9.33074ZM13.2687 9.33074V9.10158H13.0395V9.33074H13.2687ZM13.2687 11.4557H13.0395V11.6849H13.2687V11.4557ZM15.6244 11.4557V11.6849H15.8537L15.8536 11.4557L15.6244 11.4557ZM5.79203 13.0306L5.79271 12.8014H5.79203V13.0306ZM6.1088 13.1674H6.33796V13.0751L6.27391 13.0085L6.1088 13.1674ZM6.1088 13.1689H5.87964V13.2616L5.94414 13.3283L6.1088 13.1689ZM6.24135 13.4973H6.47051L6.4705 13.4959L6.24135 13.4973ZM6.24135 15.7499L6.4705 15.7505V15.7499H6.24135ZM6.10908 16.0791L5.94444 15.9197L5.94403 15.9202L6.10908 16.0791ZM5.79231 16.2157V16.4449L5.79272 16.4449L5.79231 16.2157ZM3.3126 16.2157L3.31219 16.4449H3.3126V16.2157ZM2.99583 16.0791L2.83041 16.2377L2.83078 16.2381L2.99583 16.0791ZM2.8644 15.7499H2.63524L2.63524 15.7506L2.8644 15.7499ZM2.8644 13.4973L2.63524 13.4964V13.4973H2.8644ZM2.995 13.17L2.84499 12.9968L2.83687 13.0038L2.82944 13.0116L2.995 13.17ZM2.99666 13.1686L3.14667 13.3418L3.15461 13.335L3.16189 13.3274L2.99666 13.1686ZM5.73007 13.5631L5.95922 13.563L5.95916 13.3339H5.73007V13.5631ZM3.37401 13.5631V13.3339H3.14485V13.5631H3.37401ZM3.37401 15.6875H3.14485V15.9167H3.37401V15.6875ZM5.73062 15.6875V15.9167H5.95984L5.95978 15.6875L5.73062 15.6875ZM10.7384 13.0317L10.7394 12.8026H10.7384V13.0317ZM11.0549 13.1686L10.8899 13.3276L10.8971 13.3351L10.9049 13.3418L11.0549 13.1686ZM11.0565 13.17L11.2226 13.0121L11.2149 13.0041L11.2066 12.9968L11.0565 13.17ZM11.1871 13.4984H11.4163L11.4163 13.4975L11.1871 13.4984ZM11.1871 15.7511L11.4163 15.7515V15.7511H11.1871ZM11.0557 16.0803L11.2206 16.2394L11.221 16.239L11.0557 16.0803ZM10.7392 16.2169V16.446L10.74 16.446L10.7392 16.2169ZM8.25979 16.2169L8.2595 16.446H8.25979V16.2169ZM7.8102 15.7502H7.58104L7.58104 15.7507L7.8102 15.7502ZM7.8102 13.4975L7.58104 13.4967V13.4975H7.8102ZM10.6773 13.5622L10.9064 13.5621L10.9063 13.3331H10.6773V13.5622ZM8.3212 13.5622V13.3331H8.09204V13.5622H8.3212ZM8.3212 15.6867H8.09204V15.9158H8.3212V15.6867ZM10.6781 15.6867V15.9158H10.9073L10.9072 15.6866L10.6781 15.6867ZM10.8048 8.80079L10.8049 8.57163H10.8048V8.80079ZM11.1222 8.93757L11.2874 8.77868L11.1222 8.93757ZM11.2538 9.26749H11.483V9.26735L11.2538 9.26749ZM11.2538 11.5201L11.483 11.5208V11.5201H11.2538ZM11.1221 11.8491L11.2871 12.0081L11.2872 12.008L11.1221 11.8491ZM10.8054 11.9857V12.2148L10.8058 12.2148L10.8054 11.9857ZM8.32537 11.9857V11.7565L8.32478 11.7565L8.32537 11.9857ZM7.8755 11.5193H8.10465H7.8755ZM7.8755 9.26662L7.64634 9.26596V9.26662H7.8755ZM8.00693 8.93739L7.84179 8.77851L7.84151 8.7788L8.00693 8.93739ZM8.0086 8.93566L7.84437 8.77583L7.84346 8.77677L8.0086 8.93566ZM10.7428 9.33045H10.972V9.10129H10.7428V9.33045ZM8.38678 9.33045V9.10129H8.15762V9.33045H8.38678ZM8.38678 11.4554H8.15762V11.6846H8.38678V11.4554ZM10.7428 11.4554V11.6846H10.972V11.4554H10.7428ZM5.92291 8.80079L5.92305 8.57163H5.92291V8.80079ZM6.24034 8.93757L6.40548 8.77868L6.24034 8.93757ZM6.37194 9.26749H6.6011L6.6011 9.26735L6.37194 9.26749ZM6.37194 11.5201H6.14279V11.5202L6.37194 11.5201ZM6.24135 11.8494L6.40652 12.0082L6.40698 12.0077L6.24135 11.8494ZM5.92291 11.986L5.92356 11.7568H5.92291V11.986ZM3.4432 11.986L3.44291 12.2151H3.4432V11.986ZM2.99361 11.5196H2.76445L2.76445 11.5202L2.99361 11.5196ZM2.99361 9.26691L2.76445 9.26641V9.26691H2.99361ZM3.12587 8.93768L3.29047 9.09712L3.29101 9.09656L3.12587 8.93768ZM3.12754 8.93595L2.96275 8.77671L2.96241 8.77706L3.12754 8.93595ZM5.86066 9.33074L6.08982 9.33065L6.08973 9.10158H5.86066V9.33074ZM3.50489 9.33074V9.10158H3.27573V9.33074H3.50489ZM3.50489 11.4557H3.27573V11.6849H3.50489V11.4557ZM5.8615 11.4557V11.6849H6.09074L6.09065 11.4556L5.8615 11.4557ZM15.0534 1.92994H14.8243H15.0534ZM14.6525 4.67412V4.90328V4.67412ZM13.7405 2.70913L13.7405 2.93828L13.9696 2.93829V2.70913H13.7405ZM13.7405 1.92936H13.5113H13.7405ZM14.6522 0.981812V0.752654V0.981812ZM15.5639 1.92936H15.793H15.5639ZM15.5639 2.70913H15.3347V2.93828H15.5639V2.70913ZM16.747 2.70913L16.7477 2.47997H16.747V2.70913ZM18.093 4.10836H18.3222L18.3222 4.10777L18.093 4.10836ZM18.093 16.7711L18.3222 16.7712V16.7711H18.093ZM17.6976 17.7585L17.5329 17.5992L17.5322 17.5999L17.6976 17.7585ZM16.7479 18.1689V18.398H16.748L16.7479 18.1689ZM2.25225 18.1689L2.25217 18.398H2.25225V18.1689ZM1.30249 17.7585L1.46799 17.6L1.46706 17.599L1.30249 17.7585ZM0.90625 16.7711H0.677093L0.677093 16.7714L0.90625 16.7711ZM0.90625 4.10836H1.13541V4.10831L0.90625 4.10836ZM1.30166 3.1198L1.46635 3.27914L1.46733 3.27812L1.30166 3.1198ZM2.25142 2.70884V2.47968H2.25136L2.25142 2.70884ZM3.43486 2.70884V2.93799H3.66402V2.70884H3.43486ZM3.43486 1.92908L3.20571 1.92523V1.92908H3.43486ZM5.25908 1.92908H5.48827L5.4882 1.92523L5.25908 1.92908ZM5.25908 2.70884H5.02992V2.93799L5.25907 2.93799L5.25908 2.70884ZM4.7478 1.92994H4.51864H4.7478ZM3.94587 4.25738H3.71671H3.94587ZM4.34683 4.67412V4.90328V4.67412ZM17.5818 7.22971L17.8109 7.22974L17.8109 7.00056H17.5818V7.22971ZM1.41753 7.22971V7.00056H1.18837V7.22971H1.41753ZM1.41753 16.7711H1.18837L1.18837 16.7718L1.41753 16.7711ZM2.25114 17.6375L2.25035 17.8667H2.25114V17.6375ZM16.747 17.6375V17.8667L16.7478 17.8667L16.747 17.6375ZM17.5806 16.7711L17.8098 16.7718V16.7711L17.5806 16.7711ZM1.41753 6.69919V6.92835H17.5818V6.69919V6.47003H1.41753V6.69919ZM17.5818 6.69919H17.8109V4.10836H17.5818H17.3526V6.69919H17.5818ZM17.5818 4.10836L17.8109 4.10763C17.81 3.82034 17.6999 3.54341 17.5019 3.33768L17.3368 3.49657L17.1717 3.65545C17.2861 3.77436 17.3521 3.93728 17.3526 4.10909L17.5818 4.10836ZM17.3368 3.49657L17.5019 3.33768C17.3037 3.13166 17.0332 3.01379 16.7489 3.01281L16.7481 3.24196L16.7474 3.47112C16.9048 3.47166 17.0575 3.53683 17.1717 3.65545L17.3368 3.49657ZM16.7481 3.24196V3.0128H15.5639V3.24196V3.47112H16.7481V3.24196ZM15.5639 3.24196H15.3347V4.25883H15.5639H15.793V3.24196H15.5639ZM15.5639 4.25883H15.3347C15.3347 4.45215 15.2607 4.63586 15.1317 4.76996L15.2968 4.92885L15.462 5.08773C15.6749 4.86644 15.793 4.56812 15.793 4.25883H15.5639ZM15.2968 4.92885L15.1317 4.76996C15.003 4.90377 14.8303 4.97722 14.6522 4.97722V5.20638V5.43554C14.9577 5.43554 15.2488 5.30933 15.462 5.08773L15.2968 4.92885ZM14.6522 5.20638V4.97722C14.4741 4.97722 14.3014 4.90377 14.1726 4.76996L14.0075 4.92885L13.8424 5.08773C14.0556 5.30933 14.3467 5.43554 14.6522 5.43554V5.20638ZM14.0075 4.92885L14.1726 4.76996C14.0436 4.63586 13.9696 4.45215 13.9696 4.25883H13.7405H13.5113C13.5113 4.56812 13.6295 4.86644 13.8424 5.08773L14.0075 4.92885ZM13.7405 4.25883H13.9696V3.24052H13.7405H13.5113V4.25883H13.7405ZM13.7405 3.24052V3.01136H5.2588V3.24052V3.46967H13.7405V3.24052ZM5.2588 3.24052H5.02964V4.25738H5.2588H5.48796V3.24052H5.2588ZM5.2588 4.25738L5.02967 4.25354C5.02646 4.44476 4.95107 4.6253 4.82235 4.75677L4.98609 4.91709L5.14984 5.07741C5.36231 4.86039 5.48279 4.56712 5.48792 4.26123L5.2588 4.25738ZM4.98609 4.91709L4.82235 4.75677C4.69391 4.88796 4.52292 4.95981 4.34669 4.95981V5.18897V5.41812C4.64883 5.41812 4.93708 5.29471 5.14984 5.07741L4.98609 4.91709ZM4.34669 5.18897V4.95981C4.17046 4.95981 3.99947 4.88796 3.87103 4.75677L3.70729 4.91709L3.54355 5.07741C3.75631 5.29471 4.04455 5.41812 4.34669 5.41812V5.18897ZM3.70729 4.91709L3.87103 4.75677C3.74231 4.6253 3.66692 4.44476 3.66371 4.25354L3.43459 4.25738L3.20546 4.26123C3.2106 4.56712 3.33107 4.86039 3.54355 5.07741L3.70729 4.91709ZM3.43459 4.25738H3.66374V3.24052H3.43459H3.20543V4.25738H3.43459ZM3.43459 3.24052V3.01136H2.25225V3.24052V3.46967H3.43459V3.24052ZM2.25225 3.24052L2.25146 3.01136C1.96719 3.01234 1.6967 3.13022 1.49848 3.33624L1.66361 3.49512L1.82874 3.65401C1.94287 3.53539 2.09559 3.47022 2.25304 3.46967L2.25225 3.24052ZM1.66361 3.49512L1.49848 3.33624C1.30054 3.54196 1.1904 3.8189 1.18949 4.10619L1.41864 4.10692L1.6478 4.10765C1.64835 3.93584 1.71433 3.77292 1.82874 3.65401L1.66361 3.49512ZM1.41864 4.10692L1.18948 4.10682L1.18837 6.69909L1.41753 6.69919L1.64669 6.69929L1.6478 4.10702L1.41864 4.10692ZM13.2064 13.0306V13.2597H15.6867V13.0306V12.8014H13.2064V13.0306ZM15.6867 13.0306L15.686 13.2597C15.741 13.2599 15.7956 13.2826 15.8372 13.3261L16.0026 13.1674L16.168 13.0088C16.0422 12.8776 15.8696 12.802 15.6874 12.8014L15.6867 13.0306ZM16.0026 13.1674L15.8375 13.3263L15.8389 13.3278L16.004 13.1689L16.1691 13.01L16.1678 13.0086L16.0026 13.1674ZM16.004 13.1689L15.8389 13.3278C15.8811 13.3716 15.9063 13.4327 15.9066 13.4982L16.1357 13.4973L16.3649 13.4963C16.3641 13.3154 16.2947 13.1404 16.1691 13.0099L16.004 13.1689ZM16.1357 13.4973H15.9066V15.7499H16.1357H16.3649V13.4973H16.1357ZM16.1357 15.7499L15.9066 15.7493C15.9064 15.815 15.8811 15.8763 15.8389 15.9203L16.004 16.0791L16.1692 16.238C16.295 16.1072 16.3644 15.9318 16.3649 15.7505L16.1357 15.7499ZM16.004 16.0791V15.85H16.0026V16.0791V16.3083H16.004V16.0791ZM16.0026 16.0791L15.8373 15.9205C15.7957 15.9638 15.7412 15.9865 15.6863 15.9866L15.6867 16.2157L15.6871 16.4449C15.8693 16.4445 16.0421 16.369 16.168 16.2378L16.0026 16.0791ZM15.6867 16.2157V15.9866H13.2064V16.2157V16.4449H15.6867V16.2157ZM13.2064 16.2157L13.2069 15.9866C13.1519 15.9865 13.0974 15.9638 13.0558 15.9205L12.8905 16.0791L12.7252 16.2378C12.851 16.369 13.0238 16.4445 13.206 16.4449L13.2064 16.2157ZM12.8905 16.0791V15.85H12.8888V16.0791V16.3083H12.8905V16.0791ZM12.8888 16.0791L13.0541 15.9204C13.0119 15.8765 12.9867 15.8152 12.9865 15.7495L12.7574 15.7499L12.5282 15.7503C12.5286 15.9316 12.5979 16.107 12.7236 16.2379L12.8888 16.0791ZM12.7574 15.7499H12.9865V13.4973H12.7574H12.5282V15.7499H12.7574ZM12.7574 13.4973L12.9865 13.4983C12.9868 13.4332 13.0119 13.3725 13.0538 13.3291L12.8888 13.17L12.7238 13.011C12.5984 13.1411 12.529 13.3157 12.5282 13.4963L12.7574 13.4973ZM12.8888 13.17L13.0388 13.3433L13.0405 13.3418L12.8905 13.1686L12.7405 12.9954L12.7388 12.9968L12.8888 13.17ZM12.8905 13.1686L13.0557 13.3274C13.0975 13.2839 13.1522 13.2611 13.2074 13.2609L13.2064 13.0317L13.2055 12.8026C13.0235 12.8033 12.8511 12.8789 12.7253 13.0098L12.8905 13.1686ZM15.6239 13.5631V13.3339H13.2687V13.5631V13.7923H15.6239V13.5631ZM13.2687 13.5631H13.0395V15.6875H13.2687H13.4978V13.5631H13.2687ZM13.2687 15.6875V15.9167H15.6244V15.6875V15.4584H13.2687V15.6875ZM15.6244 15.6875L15.8536 15.6875L15.853 13.563L15.6239 13.5631L15.3947 13.5632L15.3953 15.6876L15.6244 15.6875ZM13.2064 8.80194V9.0311H15.6867V8.80194V8.57279H13.2064V8.80194ZM15.6867 8.80194L15.6865 9.0311C15.742 9.03114 15.797 9.05396 15.839 9.0976L16.0041 8.93872L16.1693 8.77984C16.0429 8.64847 15.8695 8.5729 15.6868 8.57279L15.6867 8.80194ZM16.0041 8.93872L15.839 9.0976C15.8813 9.14155 15.9065 9.20297 15.9066 9.26878L16.1357 9.26864L16.3649 9.26851C16.3648 9.08682 16.2954 8.9109 16.1693 8.77984L16.0041 8.93872ZM16.1357 9.26864H15.9066V11.5213H16.1357H16.3649V9.26864H16.1357ZM16.1357 11.5213L15.9066 11.5206C15.9064 11.5863 15.8811 11.6475 15.8389 11.6913L16.004 11.8502L16.1691 12.0092C16.2949 11.8785 16.3644 11.7032 16.3649 11.5219L16.1357 11.5213ZM16.004 11.8502V11.6211H16.0026V11.8502V12.0794H16.004V11.8502ZM16.0026 11.8502L15.8375 11.6913C15.8169 11.7127 15.7929 11.7292 15.7672 11.7402L15.8577 11.9508L15.9481 12.1613C16.0308 12.1258 16.1053 12.074 16.1677 12.0092L16.0026 11.8502ZM15.8577 11.9508L15.7672 11.7402C15.7415 11.7513 15.7142 11.7568 15.6869 11.7568L15.6867 11.986L15.6864 12.2151C15.7765 12.2152 15.8654 12.1969 15.9481 12.1613L15.8577 11.9508ZM15.6867 11.986V11.7568H13.2064V11.986V12.2151H15.6867V11.986ZM13.2064 11.986L13.2063 11.7568C13.1787 11.7568 13.1511 11.7512 13.1251 11.74L13.0346 11.9505L12.9441 12.1611C13.027 12.1967 13.1163 12.2152 13.2066 12.2151L13.2064 11.986ZM13.0346 11.9505L13.1251 11.74C13.0991 11.7288 13.0748 11.7122 13.054 11.6905L12.8889 11.8495L12.7238 12.0084C12.7864 12.0734 12.8612 12.1254 12.9441 12.1611L13.0346 11.9505ZM12.8889 11.8495L13.054 11.6905C13.0332 11.6689 13.0162 11.6427 13.0044 11.6132L12.7916 11.6981L12.5787 11.783C12.6121 11.8667 12.6613 11.9434 12.7238 12.0084L12.8889 11.8495ZM12.7916 11.6981L13.0044 11.6132C12.9927 11.5838 12.9865 11.5519 12.9865 11.5196H12.7574H12.5282C12.5282 11.6097 12.5453 11.6992 12.5787 11.783L12.7916 11.6981ZM12.7574 11.5196H12.9865V9.26691H12.7574H12.5282V11.5196H12.7574ZM12.7574 9.26691L12.9865 9.26757C12.9867 9.20174 13.012 9.14033 13.0542 9.09626L12.8888 8.93768L12.7234 8.77909C12.598 8.90994 12.5288 9.08517 12.5282 9.26625L12.7574 9.26691ZM12.8888 8.93768L13.054 9.09656L13.0556 9.09483L12.8905 8.93595L12.7254 8.77706L12.7237 8.7788L12.8888 8.93768ZM12.8905 8.93595L13.0548 9.09568C13.0969 9.05233 13.1519 9.02958 13.2073 9.02937L13.2064 8.80021L13.2055 8.57105C13.0242 8.57176 12.8523 8.64649 12.7262 8.77621L12.8905 8.93595ZM15.6239 9.33074V9.10158H13.2687V9.33074V9.55989H15.6239V9.33074ZM13.2687 9.33074H13.0395V11.4557H13.2687H13.4978V9.33074H13.2687ZM13.2687 11.4557V11.6849H15.6244V11.4557V11.2266H13.2687V11.4557ZM15.6244 11.4557L15.8536 11.4557L15.853 9.33068L15.6239 9.33074L15.3947 9.3308L15.3953 11.4558L15.6244 11.4557ZM3.3126 13.0306V13.2597H5.79203V13.0306V12.8014H3.3126V13.0306ZM5.79203 13.0306L5.79135 13.2597C5.84676 13.2599 5.90172 13.2827 5.94369 13.3264L6.1088 13.1674L6.27391 13.0085C6.14779 12.8775 5.97499 12.8019 5.79271 12.8014L5.79203 13.0306ZM6.1088 13.1674H5.87964V13.1689H6.1088H6.33796V13.1674H6.1088ZM6.1088 13.1689L5.94414 13.3283C5.9864 13.3719 6.01181 13.433 6.01219 13.4986L6.24135 13.4973L6.4705 13.4959C6.46944 13.3148 6.39955 13.1398 6.27346 13.0095L6.1088 13.1689ZM6.24135 13.4973H6.01219V15.7499H6.24135H6.4705V13.4973H6.24135ZM6.24135 15.7499L6.01219 15.7493C6.01211 15.7816 6.00589 15.8134 5.9941 15.8428L6.20674 15.9282L6.41938 16.0136C6.45298 15.93 6.47028 15.8406 6.4705 15.7505L6.24135 15.7499ZM6.20674 15.9282L5.9941 15.8428C5.98231 15.8721 5.9653 15.8982 5.94444 15.9197L6.10908 16.0791L6.27372 16.2385C6.33642 16.1738 6.38578 16.0973 6.41938 16.0136L6.20674 15.9282ZM6.10908 16.0791L5.94403 15.9202C5.9021 15.9637 5.84721 15.9865 5.7919 15.9866L5.79231 16.2157L5.79272 16.4449C5.97503 16.4446 6.14794 16.3691 6.27413 16.2381L6.10908 16.0791ZM5.79231 16.2157V15.9866H3.3126V16.2157V16.4449H5.79231V16.2157ZM3.3126 16.2157L3.31301 15.9866C3.2577 15.9865 3.2028 15.9637 3.16088 15.9202L2.99583 16.0791L2.83078 16.2381C2.95697 16.3691 3.12988 16.4446 3.31219 16.4449L3.3126 16.2157ZM2.99583 16.0791L3.16125 15.9205C3.11901 15.8765 3.09374 15.8151 3.09355 15.7492L2.8644 15.7499L2.63524 15.7506C2.63576 15.9316 2.70497 16.1069 2.83041 16.2377L2.99583 16.0791ZM2.8644 15.7499H3.09355V13.4973H2.8644H2.63524V15.7499H2.8644ZM2.8644 13.4973L3.09355 13.4981C3.09378 13.4329 3.11878 13.3721 3.16055 13.3285L2.995 13.17L2.82944 13.0116C2.70472 13.1419 2.63588 13.3163 2.63524 13.4964L2.8644 13.4973ZM2.995 13.17L3.14501 13.3433L3.14667 13.3418L2.99666 13.1686L2.84665 12.9954L2.84499 12.9968L2.995 13.17ZM2.99666 13.1686L3.16189 13.3274C3.20367 13.2839 3.25838 13.2611 3.31354 13.2609L3.3126 13.0317L3.31166 12.8026C3.12968 12.8033 2.95724 12.8789 2.83143 13.0098L2.99666 13.1686ZM5.73007 13.5631V13.3339H3.37401V13.5631V13.7923H5.73007V13.5631ZM3.37401 13.5631H3.14485V15.6875H3.37401H3.60317V13.5631H3.37401ZM3.37401 15.6875V15.9167H5.73062V15.6875V15.4584H3.37401V15.6875ZM5.73062 15.6875L5.95978 15.6875L5.95922 13.563L5.73007 13.5631L5.50091 13.5632L5.50146 15.6876L5.73062 15.6875ZM8.25868 13.0317V13.2609H10.7384V13.0317V12.8026H8.25868V13.0317ZM10.7384 13.0317L10.7374 13.2609C10.7929 13.2611 10.8479 13.284 10.8899 13.3276L11.0549 13.1686L11.2199 13.0096C11.0938 12.8788 10.9214 12.8034 10.7394 12.8026L10.7384 13.0317ZM11.0549 13.1686L10.9049 13.3418L10.9065 13.3433L11.0565 13.17L11.2066 12.9968L11.2049 12.9954L11.0549 13.1686ZM11.0565 13.17L10.8905 13.328C10.9326 13.3722 10.9577 13.4336 10.958 13.4993L11.1871 13.4984L11.4163 13.4975C11.4156 13.3172 11.3469 13.1428 11.2226 13.0121L11.0565 13.17ZM11.1871 13.4984H10.958V15.7511H11.1871H11.4163V13.4984H11.1871ZM11.1871 15.7511L10.958 15.7506C10.9579 15.8163 10.9326 15.8776 10.8905 15.9215L11.0557 16.0803L11.221 16.239C11.3467 16.1082 11.416 15.9327 11.4163 15.7515L11.1871 15.7511ZM11.0557 16.0803L10.8908 15.9212C10.8488 15.9647 10.7939 15.9876 10.7385 15.9877L10.7392 16.2169L10.74 16.446C10.922 16.4455 11.0945 16.3701 11.2206 16.2394L11.0557 16.0803ZM10.7392 16.2169V15.9877H8.25979V16.2169V16.446H10.7392V16.2169ZM8.25979 16.2169L8.26008 15.9877C8.20452 15.9877 8.14938 15.9648 8.10727 15.9211L7.94224 16.0801L7.7772 16.239C7.90363 16.3703 8.07686 16.4458 8.2595 16.446L8.25979 16.2169ZM7.94224 16.0801L8.10727 15.9211C8.06488 15.8771 8.03951 15.8156 8.03935 15.7496L7.8102 15.7502L7.58104 15.7507C7.58147 15.9324 7.65106 16.1081 7.7772 16.239L7.94224 16.0801ZM7.8102 15.7502H8.03935V13.4975H7.8102H7.58104V15.7502H7.8102ZM7.8102 13.4975L8.03935 13.4984C8.03959 13.4324 8.06501 13.3709 8.10743 13.3268L7.9424 13.1678L7.77736 13.0089C7.65132 13.1397 7.58169 13.3152 7.58104 13.4967L7.8102 13.4975ZM7.9424 13.1678L8.10743 13.3268C8.14958 13.2831 8.20475 13.2601 8.26038 13.26L8.25979 13.0308L8.2592 12.8017C8.07672 12.8022 7.90369 12.8777 7.77736 13.0089L7.9424 13.1678ZM10.6773 13.5622V13.3331H8.3212V13.5622V13.7914H10.6773V13.5622ZM8.3212 13.5622H8.09204V15.6867H8.3212H8.55036V13.5622H8.3212ZM8.3212 15.6867V15.9158H10.6781V15.6867V15.4575H8.3212V15.6867ZM10.6781 15.6867L10.9072 15.6866L10.9064 13.5621L10.6773 13.5622L10.4481 13.5623L10.4489 15.6867L10.6781 15.6867ZM8.32537 8.80079V9.02994H10.8048V8.80079V8.57163H8.32537V8.80079ZM10.8048 8.80079L10.8046 9.02994C10.8601 9.02998 10.9151 9.0528 10.9571 9.09645L11.1222 8.93757L11.2874 8.77868C11.161 8.64732 10.9877 8.57175 10.8049 8.57163L10.8048 8.80079ZM11.1222 8.93757L10.9571 9.09645C10.9994 9.1404 11.0246 9.20181 11.0247 9.26762L11.2538 9.26749L11.483 9.26735C11.4829 9.08566 11.4135 8.90975 11.2874 8.77868L11.1222 8.93757ZM11.2538 9.26749H11.0247V11.5201H11.2538H11.483V9.26749H11.2538ZM11.2538 11.5201L11.0247 11.5195C11.0245 11.5851 10.9992 11.6463 10.957 11.6901L11.1221 11.8491L11.2872 12.008C11.413 11.8773 11.4825 11.702 11.483 11.5208L11.2538 11.5201ZM11.1221 11.8491L10.9571 11.6901C10.9152 11.7336 10.8602 11.7564 10.8049 11.7565L10.8054 11.9857L10.8058 12.2148C10.9881 12.2145 11.1609 12.139 11.2871 12.0081L11.1221 11.8491ZM10.8054 11.9857V11.7565H8.32537V11.9857V12.2148H10.8054V11.9857ZM8.32537 11.9857L8.32478 11.7565C8.29715 11.7566 8.26956 11.751 8.2435 11.7399L8.15329 11.9505L8.06308 12.1612C8.14618 12.1967 8.23553 12.2151 8.32596 12.2148L8.32537 11.9857ZM8.15329 11.9505L8.2435 11.7399C8.21743 11.7287 8.19314 11.712 8.17226 11.6904L8.00733 11.8495L7.84239 12.0086C7.9051 12.0736 7.98001 12.1256 8.06308 12.1612L8.15329 11.9505ZM8.00733 11.8495L8.17226 11.6904C8.15137 11.6687 8.13435 11.6425 8.12259 11.6131L7.90976 11.698L7.69694 11.783C7.73042 11.8668 7.7797 11.9436 7.84239 12.0086L8.00733 11.8495ZM7.90976 11.698L8.12259 11.6131C8.11082 11.5836 8.10465 11.5517 8.10465 11.5193H7.8755L7.64634 11.5193C7.64634 11.6095 7.66347 11.6991 7.69694 11.783L7.90976 11.698ZM7.8755 11.5193H8.10465V9.26662H7.8755H7.64634V11.5193H7.8755ZM7.8755 9.26662L8.10465 9.26728C8.10484 9.20145 8.1301 9.14004 8.17235 9.09598L8.00693 8.93739L7.84151 8.7788C7.71607 8.90965 7.64686 9.08488 7.64634 9.26596L7.8755 9.26662ZM8.00693 8.93739L8.17206 9.09627L8.17373 9.09454L8.0086 8.93566L7.84346 8.77677L7.8418 8.77851L8.00693 8.93739ZM8.0086 8.93566L8.17282 9.09548C8.21514 9.052 8.27031 9.02922 8.32594 9.02908L8.32537 8.79992L8.3248 8.57076C8.14315 8.57122 7.97079 8.64594 7.84437 8.77584L8.0086 8.93566ZM10.7428 9.33045V9.10129H8.38678V9.33045V9.5596H10.7428V9.33045ZM8.38678 9.33045H8.15762V11.4554H8.38678H8.61593V9.33045H8.38678ZM8.38678 11.4554V11.6846H10.7428V11.4554V11.2263H8.38678V11.4554ZM10.7428 11.4554H10.972V9.33045H10.7428H10.5137V11.4554H10.7428ZM3.4432 8.80079V9.02994H5.92291V8.80079V8.57163H3.4432V8.80079ZM5.92291 8.80079L5.92276 9.02994C5.97819 9.02998 6.03321 9.0528 6.07521 9.09645L6.24034 8.93757L6.40548 8.77868C6.27908 8.64732 6.10576 8.57175 5.92305 8.57163L5.92291 8.80079ZM6.24034 8.93757L6.07521 9.09645C6.11749 9.1404 6.14275 9.20181 6.14279 9.26762L6.37194 9.26749L6.6011 9.26735C6.60099 9.08566 6.53158 8.90975 6.40548 8.77868L6.24034 8.93757ZM6.37194 9.26749H6.14279V11.5201H6.37194H6.6011V9.26749H6.37194ZM6.37194 11.5201L6.14279 11.5202C6.1428 11.5858 6.11775 11.647 6.07571 11.691L6.24135 11.8494L6.40698 12.0077C6.53228 11.8767 6.60113 11.7012 6.6011 11.5201L6.37194 11.5201ZM6.24135 11.8494L6.07617 11.6905C6.05531 11.7122 6.031 11.7289 6.00491 11.7401L6.09525 11.9507L6.18559 12.1613C6.26879 12.1256 6.34379 12.0734 6.40652 12.0082L6.24135 11.8494ZM6.09525 11.9507L6.00491 11.7401C5.97883 11.7513 5.95122 11.7569 5.92356 11.7568L5.92291 11.986L5.92225 12.2151C6.01284 12.2154 6.10237 12.197 6.18559 12.1613L6.09525 11.9507ZM5.92291 11.986V11.7568H3.4432V11.986V12.2151H5.92291V11.986ZM3.4432 11.986L3.44349 11.7568C3.38795 11.7567 3.33283 11.7339 3.29073 11.6902L3.12574 11.8492L2.96076 12.0083C3.08718 12.1394 3.26035 12.2149 3.44291 12.2151L3.4432 11.986ZM3.12574 11.8492L3.29073 11.6902C3.24834 11.6462 3.22296 11.5848 3.22276 11.5189L2.99361 11.5196L2.76445 11.5202C2.76499 11.7018 2.83463 11.8774 2.96076 12.0083L3.12574 11.8492ZM2.99361 11.5196H3.22276V9.26691H2.99361H2.76445V11.5196H2.99361ZM2.99361 9.26691L3.22276 9.26742C3.22283 9.23513 3.22904 9.20337 3.24083 9.17403L3.02819 9.0886L2.81555 9.00318C2.78195 9.08683 2.76465 9.17625 2.76445 9.26641L2.99361 9.26691ZM3.02819 9.0886L3.24083 9.17403C3.25261 9.1447 3.26962 9.11864 3.29047 9.09712L3.12587 8.93768L2.96128 8.77824C2.89854 8.843 2.84916 8.91951 2.81555 9.00318L3.02819 9.0886ZM3.12587 8.93768L3.29101 9.09656L3.29267 9.09483L3.12754 8.93595L2.96241 8.77706L2.96074 8.7788L3.12587 8.93768ZM3.12754 8.93595L3.29233 9.09518C3.33404 9.05202 3.38858 9.02944 3.44351 9.02937L3.4432 8.80021L3.44289 8.57105C3.26115 8.5713 3.08874 8.64632 2.96275 8.77671L3.12754 8.93595ZM5.86066 9.33074V9.10158H3.50489V9.33074V9.55989H5.86066V9.33074ZM3.50489 9.33074H3.27573V11.4557H3.50489H3.73404V9.33074H3.50489ZM3.50489 11.4557V11.6849H5.8615V11.4557V11.2266H3.50489V11.4557ZM5.8615 11.4557L6.09065 11.4556L6.08982 9.33065L5.86066 9.33074L5.63151 9.33083L5.63234 11.4558L5.8615 11.4557ZM15.0534 2.9754H15.2826V1.92994H15.0534H14.8243V2.9754H15.0534ZM15.0534 1.92994H15.2826C15.2826 1.76143 15.2183 1.59813 15.1011 1.47638L14.936 1.63526L14.7708 1.79415C14.8041 1.82871 14.8243 1.8774 14.8243 1.92994H15.0534ZM14.936 1.63526L15.1011 1.47638C14.9837 1.35433 14.8225 1.28405 14.6525 1.28405V1.5132V1.74236C14.6951 1.74236 14.7379 1.75989 14.7708 1.79415L14.936 1.63526ZM14.6525 1.5132V1.28405C14.4824 1.28405 14.3212 1.35433 14.2038 1.47638L14.3689 1.63526L14.5341 1.79415C14.567 1.75989 14.6098 1.74236 14.6525 1.74236V1.5132ZM14.3689 1.63526L14.2038 1.47638C14.0867 1.59813 14.0223 1.76143 14.0223 1.92994H14.2515H14.4806C14.4806 1.8774 14.5008 1.82871 14.5341 1.79415L14.3689 1.63526ZM14.2515 1.92994H14.0223V4.25738H14.2515H14.4806V1.92994H14.2515ZM14.2515 4.25738H14.0223C14.0223 4.42589 14.0867 4.5892 14.2038 4.71095L14.3689 4.55206L14.5341 4.39318C14.5008 4.35862 14.4806 4.30992 14.4806 4.25738H14.2515ZM14.3689 4.55206L14.2038 4.71095C14.3212 4.83299 14.4824 4.90328 14.6525 4.90328V4.67412V4.44496C14.6098 4.44496 14.567 4.42744 14.5341 4.39318L14.3689 4.55206ZM14.6525 4.67412V4.90328C14.8225 4.90328 14.9837 4.83299 15.1011 4.71095L14.936 4.55206L14.7708 4.39318C14.7379 4.42744 14.6951 4.44496 14.6525 4.44496V4.67412ZM14.936 4.55206L15.1011 4.71095C15.2183 4.5892 15.2826 4.42589 15.2826 4.25738H15.0534H14.8243C14.8243 4.30992 14.8041 4.35862 14.7708 4.39318L14.936 4.55206ZM15.0534 4.25738H15.2826V2.9754H15.0534H14.8243V4.25738H15.0534ZM13.7405 2.70913H13.9696V1.92936H13.7405H13.5113V2.70913H13.7405ZM13.7405 1.92936H13.9696C13.9696 1.73604 14.0436 1.55233 14.1726 1.41823L14.0075 1.25934L13.8424 1.10046C13.6295 1.32176 13.5113 1.62007 13.5113 1.92936H13.7405ZM14.0075 1.25934L14.1726 1.41823C14.3014 1.28442 14.4741 1.21097 14.6522 1.21097V0.981812V0.752654C14.3467 0.752654 14.0556 0.878864 13.8424 1.10046L14.0075 1.25934ZM14.6522 0.981812V1.21097C14.8303 1.21097 15.003 1.28442 15.1317 1.41823L15.2968 1.25934L15.462 1.10046C15.2488 0.878864 14.9577 0.752654 14.6522 0.752654V0.981812ZM15.2968 1.25934L15.1317 1.41823C15.2607 1.55233 15.3347 1.73604 15.3347 1.92936H15.5639H15.793C15.793 1.62007 15.6749 1.32176 15.462 1.10046L15.2968 1.25934ZM15.5639 1.92936H15.3347V2.70913H15.5639H15.793V1.92936H15.5639ZM15.5639 2.70913V2.93828H16.747V2.70913V2.47997H15.5639V2.70913ZM16.747 2.70913L16.7464 2.93828C17.0396 2.93916 17.3225 3.06057 17.5326 3.27902L17.6978 3.12015L17.8629 2.96128C17.5686 2.65536 17.1679 2.48123 16.7477 2.47997L16.747 2.70913ZM17.6978 3.12015L17.5326 3.27902C17.743 3.49776 17.8631 3.79598 17.8639 4.10895L18.093 4.10836L18.3222 4.10777C18.3211 3.67925 18.1569 3.26691 17.8629 2.96128L17.6978 3.12015ZM18.093 4.10836H17.8639V16.7711H18.093H18.3222V4.10836H18.093ZM18.093 16.7711L17.8639 16.7709C17.8638 16.9255 17.8343 17.0783 17.7773 17.2206L17.9901 17.3058L18.2028 17.391C18.2815 17.1943 18.3221 16.9838 18.3222 16.7712L18.093 16.7711ZM17.9901 17.3058L17.7773 17.2206C17.7204 17.3628 17.6372 17.4914 17.5329 17.5992L17.6976 17.7585L17.8623 17.9178C18.0085 17.7667 18.1241 17.5876 18.2028 17.391L17.9901 17.3058ZM17.6976 17.7585L17.5322 17.5999C17.4285 17.7081 17.3057 17.7935 17.1712 17.8517L17.2621 18.062L17.353 18.2724C17.5444 18.1897 17.7176 18.0688 17.8631 17.9171L17.6976 17.7585ZM17.2621 18.062L17.1712 17.8517C17.0367 17.9098 16.8928 17.9396 16.7477 17.9397L16.7479 18.1689L16.748 18.398C16.9559 18.3979 17.1615 18.3551 17.353 18.2724L17.2621 18.062ZM16.7479 18.1689V17.9397H2.25225V18.1689V18.398H16.7479V18.1689ZM2.25225 18.1689L2.25233 17.9397C2.10725 17.9397 1.96338 17.9099 1.8289 17.8518L1.738 18.0621L1.64711 18.2725C1.83859 18.3552 2.04424 18.398 2.25217 18.398L2.25225 18.1689ZM1.738 18.0621L1.8289 17.8518C1.69439 17.7936 1.57166 17.7082 1.46799 17.6L1.30249 17.7585L1.137 17.917C1.28238 18.0688 1.45564 18.1898 1.64711 18.2725L1.738 18.0621ZM1.30249 17.7585L1.46706 17.599C1.36268 17.4913 1.27936 17.3628 1.22228 17.2205L1.00961 17.3059L0.796934 17.3912C0.875852 17.5879 0.991593 17.767 1.13793 17.918L1.30249 17.7585ZM1.00961 17.3059L1.22228 17.2205C1.16519 17.0783 1.1356 16.9254 1.13541 16.7708L0.90625 16.7711L0.677093 16.7714C0.677363 16.984 0.718021 17.1946 0.796934 17.3912L1.00961 17.3059ZM0.90625 16.7711H1.13541V4.10836H0.90625H0.677093V16.7711H0.90625ZM0.90625 4.10836L1.13541 4.10831C1.13538 3.95359 1.16479 3.80057 1.22175 3.65815L1.00899 3.57305L0.796218 3.48794C0.717465 3.68483 0.677049 3.89567 0.677093 4.10841L0.90625 4.10836ZM1.00899 3.57305L1.22175 3.65815C1.27872 3.51574 1.36198 3.38701 1.46635 3.27914L1.30166 3.1198L1.13697 2.96046C0.990638 3.1117 0.874976 3.29104 0.796218 3.48794L1.00899 3.57305ZM1.30166 3.1198L1.46733 3.27812C1.57089 3.16975 1.69357 3.08424 1.82805 3.02605L1.73705 2.81574L1.64605 2.60542C1.45453 2.68829 1.28127 2.80945 1.13599 2.96147L1.30166 3.1198ZM1.73705 2.81574L1.82805 3.02605C1.96251 2.96787 2.10638 2.93803 2.25147 2.93799L2.25142 2.70884L2.25136 2.47968C2.04333 2.47973 1.83758 2.52255 1.64605 2.60542L1.73705 2.81574ZM2.25142 2.70884V2.93799H3.43486V2.70884V2.47968H2.25142V2.70884ZM3.43486 2.70884H3.66402V1.92908H3.43486H3.20571V2.70884H3.43486ZM3.43486 1.92908L3.66399 1.93292C3.6672 1.7417 3.74259 1.56115 3.87131 1.42969L3.70757 1.26937L3.54383 1.10905C3.33135 1.32607 3.21088 1.61934 3.20574 1.92523L3.43486 1.92908ZM3.70757 1.26937L3.87131 1.42969C3.99975 1.2985 4.17074 1.22665 4.34697 1.22665V0.997492V0.768335C4.04483 0.768335 3.75659 0.891748 3.54383 1.10905L3.70757 1.26937ZM4.34697 0.997492V1.22665C4.5232 1.22665 4.69419 1.2985 4.82263 1.42969L4.98637 1.26937L5.15011 1.10905C4.93735 0.891749 4.64911 0.768335 4.34697 0.768335V0.997492ZM4.98637 1.26937L4.82263 1.42969C4.95135 1.56115 5.02674 1.7417 5.02995 1.93292L5.25908 1.92908L5.4882 1.92523C5.48306 1.61934 5.36259 1.32607 5.15011 1.10905L4.98637 1.26937ZM5.25908 1.92908H5.02992V2.70884H5.25908H5.48823V1.92908H5.25908ZM5.25908 2.70884L5.25907 2.93799L13.7405 2.93828L13.7405 2.70913L13.7405 2.47997L5.25908 2.47968L5.25908 2.70884ZM4.7478 2.9754H4.97695V1.92994H4.7478H4.51864V2.9754H4.7478ZM4.7478 1.92994H4.97695C4.97695 1.76143 4.91263 1.59813 4.79549 1.47638L4.63036 1.63526L4.46522 1.79415C4.49847 1.82871 4.51864 1.8774 4.51864 1.92994H4.7478ZM4.63036 1.63526L4.79549 1.47638C4.67806 1.35433 4.51687 1.28405 4.34683 1.28405V1.5132V1.74236C4.38948 1.74236 4.43226 1.75989 4.46522 1.79415L4.63036 1.63526ZM4.34683 1.5132V1.28405C4.1768 1.28405 4.0156 1.35433 3.89817 1.47638L4.06331 1.63526L4.22844 1.79415C4.2614 1.75989 4.30418 1.74236 4.34683 1.74236V1.5132ZM4.06331 1.63526L3.89817 1.47638C3.78103 1.59813 3.71671 1.76143 3.71671 1.92994H3.94587H4.17502C4.17502 1.8774 4.19519 1.82871 4.22844 1.79415L4.06331 1.63526ZM3.94587 1.92994H3.71671V4.25738H3.94587H4.17502V1.92994H3.94587ZM3.94587 4.25738H3.71671C3.71671 4.42589 3.78103 4.5892 3.89817 4.71095L4.06331 4.55206L4.22844 4.39318C4.19519 4.35862 4.17502 4.30992 4.17502 4.25738H3.94587ZM4.06331 4.55206L3.89817 4.71095C4.0156 4.83299 4.1768 4.90328 4.34683 4.90328V4.67412V4.44496C4.30418 4.44496 4.2614 4.42744 4.22844 4.39318L4.06331 4.55206ZM4.34683 4.67412V4.90328C4.51687 4.90328 4.67806 4.83299 4.79549 4.71095L4.63036 4.55206L4.46522 4.39318C4.43226 4.42744 4.38948 4.44496 4.34683 4.44496V4.67412ZM4.63036 4.55206L4.79549 4.71095C4.91263 4.5892 4.97695 4.42589 4.97695 4.25738H4.7478H4.51864C4.51864 4.30992 4.49847 4.35862 4.46522 4.39318L4.63036 4.55206ZM4.7478 4.25738H4.97695V2.9754H4.7478H4.51864V4.25738H4.7478ZM17.5818 7.22971V7.00056H1.41753V7.22971V7.45887H17.5818V7.22971ZM1.41753 7.22971H1.18837V16.7711H1.41753H1.64669V7.22971H1.41753ZM1.41753 16.7711L1.18837 16.7718C1.18929 17.0591 1.29943 17.3361 1.49736 17.5418L1.6625 17.3829L1.82763 17.224C1.71322 17.1051 1.64723 16.9422 1.64669 16.7704L1.41753 16.7711ZM1.6625 17.3829L1.49736 17.5418C1.69559 17.7478 1.96608 17.8657 2.25035 17.8667L2.25114 17.6375L2.25193 17.4083C2.09448 17.4078 1.94176 17.3426 1.82763 17.224L1.6625 17.3829ZM2.25114 17.6375V17.8667H16.747V17.6375V17.4083H2.25114V17.6375ZM16.747 17.6375L16.7478 17.8667C17.0321 17.8657 17.3026 17.7478 17.5008 17.5418L17.3357 17.3829L17.1705 17.224C17.0564 17.3426 16.9037 17.4078 16.7462 17.4083L16.747 17.6375ZM17.3357 17.3829L17.5008 17.5418C17.6987 17.3361 17.8089 17.0591 17.8098 16.7718L17.5806 16.7711L17.3515 16.7704C17.3509 16.9422 17.285 17.1051 17.1705 17.224L17.3357 17.3829ZM17.5806 16.7711L17.8098 16.7711L17.8109 7.22974L17.5818 7.22971L17.3526 7.22969L17.3515 16.7711L17.5806 16.7711Z" fill="#CF9C5A" mask="url(#path-2-outside-1_551_6228)"/>
                    </g>
                    </g>
                    <defs>
                    <clipPath id="clip0_551_6228">
                    <rect width="19.4784" height="19.4784" fill="white"/>
                    </clipPath>
                    </defs>
                </svg>