<svg width="18" height="18" viewBox="0 0 18 18" fill="none" xmlns="http://www.w3.org/2000/svg">
<path d="M12.3714 8.37692L17.0149 5.24638C17.0149 4.87585 16.6694 4.61011 16.4742 4.61011H11.1738V7.69747L12.253 8.37692C12.292 8.38548 12.3324 8.38548 12.3714 8.37692Z" fill="black"/>
<path d="M12.4648 9.52594C12.4648 9.52594 12.2978 9.62786 12.1594 9.52594L11.1745 8.84967H11.1738V13.0454H16.1764C16.6209 13.0454 17.0165 12.7867 17.0165 12.1688V6.49414C17.0165 6.49414 12.2987 9.62786 12.4654 9.52626L12.4648 9.52594ZM5.9208 10.8563C6.251 10.8563 6.51294 10.7074 6.7063 10.4099C6.89934 10.112 6.99681 9.69866 6.99681 9.17066C6.99681 8.6198 6.90315 8.19118 6.71519 7.88479C6.52723 7.57904 6.27069 7.426 5.94462 7.426C5.60902 7.426 5.34137 7.5838 5.1442 7.89844C4.94672 8.2134 4.84766 8.63028 4.84766 9.14875C4.84766 9.67517 4.94672 10.0914 5.1442 10.3972C5.34137 10.7039 5.60077 10.8563 5.9208 10.8563Z" fill="black"/>
<path d="M1.27148 15.1213L10.4602 17.0475V1.26367L1.2718 3.0423L1.27148 15.1213ZM4.42171 7.17361C4.81129 6.65481 5.32691 6.39542 5.96921 6.39542C6.57563 6.39542 7.06649 6.64307 7.4405 7.13995C7.81515 7.63652 8.00248 8.29089 8.00248 9.10369C8.00311 9.93903 7.8088 10.6124 7.4205 11.1236C7.03188 11.6348 6.52578 11.8907 5.90095 11.8907C5.29198 11.8907 4.79636 11.643 4.41282 11.1477C4.02992 10.6525 3.83783 10.0073 3.83783 9.21164C3.83783 8.37153 4.03246 7.6924 4.42203 7.17361H4.42171Z" fill="black"/>
</svg>
